<?xml version="1.0" encoding="UTF-8" standalone="no"?> <!-- Created with Vectornator for iOS (http://vectornator.io/) --><!DOCTYPE svg PUBLIC "-//W3C//DTD SVG 1.1//EN" "http://www.w3.org/Graphics/SVG/1.1/DTD/svg11.dtd">
<svg height="100%" style="fill-rule:nonzero;clip-rule:evenodd;stroke-linecap:round;stroke-linejoin:round;" xmlns:xlink="http://www.w3.org/1999/xlink" xmlns="http://www.w3.org/2000/svg" xml:space="preserve" width="100%" xmlns:vectornator="http://vectornator.io" version="1.1" viewBox="0 0 3370.82 2384.24">
<metadata>
<vectornator:setting key="DimensionsVisible" value="1"/>
<vectornator:setting key="PencilOnly" value="0"/>
<vectornator:setting key="SnapToPoints" value="0"/>
<vectornator:setting key="OutlineMode" value="0"/>
<vectornator:setting key="CMYKEnabledKey" value="0"/>
<vectornator:setting key="RulersVisible" value="1"/>
<vectornator:setting key="GuidesVisible" value="1"/>
<vectornator:setting key="SnapToEdges" value="0"/>
<vectornator:setting key="DisplayWhiteBackground" value="0"/>
<vectornator:setting key="doHistoryDisabled" value="0"/>
<vectornator:setting key="TimeLapseWatermarkDisabled" value="0"/>
<vectornator:setting key="SnapToGuides" value="1"/>
<vectornator:setting key="DynamicGuides" value="0"/>
<vectornator:setting key="Units" value="Millimeters"/>
<vectornator:setting key="IsolateActiveLayer" value="0"/>
<vectornator:setting key="SnapToGrid" value="0"/>
</metadata>
<defs/>
<g id="Layer 1" vectornator:layerName="Layer 1">
<path d="M1238.82+1122.9C1241.64+1122.81+1245.46+1124.56+1248.38+1125.11C1256.9+1126.7+1263.75+1127.54+1262.8+1117.43C1261.52+1103.84+1251.33+1104.63+1246.16+1103.46" opacity="0" fill="#999999"/>
<path d="M1252.77+1126.23C1261.15+1126.23+1266.66+1125.06+1266.66+1123.15L1266.66+1123.14C1266.66+1121.24+1261.09+1120.08+1252.74+1120.08C1244.42+1120.08+1238.88+1121.25+1238.88+1123.14L1238.88+1123.15C1238.88+1125.05+1244.36+1126.23+1252.77+1126.23ZM1252.8+1125.21C1248.09+1125.21+1245.03+1124.46+1245.03+1123.15L1245.03+1123.14C1245.03+1121.84+1248.12+1121.09+1252.74+1121.09C1257.45+1121.09+1260.51+1121.84+1260.51+1123.14L1260.51+1123.15C1260.51+1124.46+1257.5+1125.21+1252.8+1125.21Z" opacity="0" fill="#7d7d7d"/>
<g opacity="0">
<path stroke="#000000" stroke-width="2.35324" d="M1197.35+1126.02C1204.25+1126.02+1209.26+1122.35+1209.26+1117L1209.26+1116.98C1209.26+1112.77+1206.98+1110.41+1201+1109.02L1196.24+1107.93C1193.09+1107.18+1191.9+1105.96+1191.9+1104.15L1191.9+1104.12C1191.9+1101.78+1193.93+1100.25+1197.16+1100.25C1200.55+1100.25+1202.56+1102.03+1202.92+1104.59L1202.95+1104.79L1208.6+1104.79L1208.57+1104.45C1208.26+1099.47+1204.09+1095.6+1197.16+1095.6C1190.42+1095.6+1185.86+1099.19+1185.86+1104.42L1185.86+1104.45C1185.86+1108.71+1188.61+1111.38+1194.18+1112.66L1198.97+1113.75C1202.11+1114.5+1203.17+1115.59+1203.17+1117.48L1203.17+1117.51C1203.17+1119.87+1201+1121.37+1197.38+1121.37C1193.68+1121.37+1191.67+1119.79+1191.12+1117.09L1191.06+1116.81L1185.11+1116.81L1185.13+1117.06C1185.75+1122.4+1190.03+1126.02+1197.35+1126.02Z" fill="none" stroke-linecap="round" opacity="1" stroke-linejoin="round"/>
<path stroke="#000000" stroke-width="2.35324" d="M1213.91+1135.18L1219.92+1135.18L1219.92+1120.51L1220.06+1120.51C1221.79+1123.91+1225.16+1126.02+1229.3+1126.02C1236.65+1126.02+1241.47+1120.15+1241.47+1110.83L1241.47+1110.8C1241.47+1101.45+1236.68+1095.6+1229.22+1095.6C1225.04+1095.6+1221.82+1097.72+1220.06+1101.2L1219.92+1101.2L1219.92+1096.16L1213.91+1096.16L1213.91+1135.18ZM1227.66+1120.85C1223.12+1120.85+1219.9+1116.89+1219.9+1110.83L1219.9+1110.8C1219.9+1104.7+1223.1+1100.75+1227.66+1100.75C1232.36+1100.75+1235.34+1104.56+1235.34+1110.8L1235.34+1110.83C1235.34+1117+1232.39+1120.85+1227.66+1120.85Z" fill="none" stroke-linecap="round" opacity="1" stroke-linejoin="round"/>
<path stroke="#000000" stroke-width="2.35324" d="M1258.69+1126.02C1267.07+1126.02+1272.58+1120.23+1272.58+1110.8L1272.58+1110.74C1272.58+1101.36+1267.02+1095.6+1258.67+1095.6C1250.34+1095.6+1244.81+1101.39+1244.81+1110.74L1244.81+1110.8C1244.81+1120.21+1250.29+1126.02+1258.69+1126.02ZM1258.72+1120.98C1254.02+1120.98+1250.96+1117.28+1250.96+1110.8L1250.96+1110.74C1250.96+1104.34+1254.05+1100.64+1258.67+1100.64C1263.37+1100.64+1266.43+1104.34+1266.43+1110.74L1266.43+1110.8C1266.43+1117.26+1263.43+1120.98+1258.72+1120.98Z" fill="none" stroke-linecap="round" opacity="1" stroke-linejoin="round"/>
<path stroke="#000000" stroke-width="2.35324" d="M1287.5+1126.02C1288.72+1126.02+1289.87+1125.88+1290.56+1125.77L1290.56+1121.12C1290.12+1121.18+1289.59+1121.24+1288.95+1121.24C1286.41+1121.24+1285.08+1120.34+1285.08+1117.37L1285.08+1100.95L1290.56+1100.95L1290.56+1096.16L1285.08+1096.16L1285.08+1088.53L1278.93+1088.53L1278.93+1096.16L1274.73+1096.16L1274.73+1100.95L1278.93+1100.95L1278.93+1117.73C1278.93+1123.57+1281.71+1126.02+1287.5+1126.02Z" fill="none" stroke-linecap="round" opacity="1" stroke-linejoin="round"/>
<path stroke="#000000" stroke-width="2.35324" d="M1295.74+1125.44L1301.75+1125.44L1301.75+1085.28L1295.74+1085.28L1295.74+1125.44Z" fill="none" stroke-linecap="round" opacity="1" stroke-linejoin="round"/>
<path stroke="#000000" stroke-width="2.35324" d="M1311.18+1091.65C1313.16+1091.65+1314.69+1090.09+1314.69+1088.2C1314.69+1086.28+1313.16+1084.72+1311.18+1084.72C1309.24+1084.72+1307.68+1086.28+1307.68+1088.2C1307.68+1090.09+1309.24+1091.65+1311.18+1091.65ZM1308.18+1125.44L1314.19+1125.44L1314.19+1096.16L1308.18+1096.16L1308.18+1125.44Z" fill="none" stroke-linecap="round" opacity="1" stroke-linejoin="round"/>
<path stroke="#000000" stroke-width="2.35324" d="M1333.23+1135.76C1341.49+1135.76+1346.67+1131.31+1346.67+1124.63L1346.67+1096.16L1340.63+1096.16L1340.63+1101.14L1340.49+1101.14C1338.77+1097.83+1335.54+1095.6+1331.42+1095.6C1323.99+1095.6+1319.09+1101.36+1319.09+1110.55L1319.09+1110.58C1319.09+1119.7+1323.93+1125.47+1331.28+1125.47C1335.48+1125.47+1338.82+1123.43+1340.49+1120.26L1340.63+1120.26L1340.63+1124.27C1340.63+1128.36+1337.99+1130.92+1333.2+1130.92C1329.44+1130.92+1326.91+1129.64+1326.1+1127.78L1325.99+1127.55L1320.04+1127.55L1320.06+1127.8C1320.95+1132.28+1325.71+1135.76+1333.23+1135.76ZM1332.98+1120.57C1328.22+1120.57+1325.24+1116.78+1325.24+1110.66L1325.24+1110.63C1325.24+1104.59+1328.22+1100.75+1332.98+1100.75C1337.54+1100.75+1340.63+1104.62+1340.63+1110.63L1340.63+1110.66C1340.63+1116.7+1337.57+1120.57+1332.98+1120.57Z" fill="none" stroke-linecap="round" opacity="1" stroke-linejoin="round"/>
<path stroke="#000000" stroke-width="2.35324" d="M1352.82+1125.44L1358.83+1125.44L1358.83+1108.49C1358.83+1103.92+1361.59+1100.75+1365.74+1100.75C1369.97+1100.75+1372.42+1103.65+1372.42+1108.49L1372.42+1125.44L1378.43+1125.44L1378.43+1107.35C1378.43+1100.28+1374.31+1095.6+1368.05+1095.6C1363.68+1095.6+1360.53+1097.58+1358.97+1100.97L1358.83+1100.97L1358.83+1085.28L1352.82+1085.28L1352.82+1125.44Z" fill="none" stroke-linecap="round" opacity="1" stroke-linejoin="round"/>
<path stroke="#000000" stroke-width="2.35324" d="M1394.51+1126.02C1395.74+1126.02+1396.88+1125.88+1397.58+1125.77L1397.58+1121.12C1397.13+1121.18+1396.6+1121.24+1395.96+1121.24C1393.43+1121.24+1392.09+1120.34+1392.09+1117.37L1392.09+1100.95L1397.58+1100.95L1397.58+1096.16L1392.09+1096.16L1392.09+1088.53L1385.94+1088.53L1385.94+1096.16L1381.74+1096.16L1381.74+1100.95L1385.94+1100.95L1385.94+1117.73C1385.94+1123.57+1388.73+1126.02+1394.51+1126.02Z" fill="none" stroke-linecap="round" opacity="1" stroke-linejoin="round"/>
</g>
<path d="M1953.47+781.292C1896.29+793.824+1631.47+861.5+1284.35+930.297C1236.09+954.075+1127.08+1065+1191.11+1085.36C1249.78+1104.02+1177.29+1211.85+1207.93+1248.62C1273.21+1326.98+1390.71+1294.53+1401.57+1286.1C1557.43+1165.29+1946.57+923.728+2003.2+879.041C1972.87+860.447+1968.54+797.772+1953.47+781.292Z" opacity="1" fill="#bebebe"/>
<path d="M512.906+1305.16C630.969+1305.16+702.774+1247.51+702.774+1156.72L702.774+1156.37C702.774+1079.39+658.586+1037.62+555.712+1015.87L501.168+1004.48C439.03+991.015+410.722+968.231+410.722+930.948L410.722+930.602C410.722+887.105+450.077+857.762+511.87+857.417C570.902+857.417+610.947+885.379+617.851+931.638L618.196+936.471L693.453+936.471L693.108+930.602C687.93+847.06+616.815+790.445+512.906+790.445C407.615+790.445+332.704+848.786+332.358+933.709L332.358+934.055C332.358+1007.93+379.653+1052.81+477.349+1073.52L531.547+1084.91C597.483+1099.41+624.755+1121.16+624.755+1161.21L624.755+1161.55C624.755+1208.16+582.639+1238.19+516.013+1238.19C449.386+1238.19+403.473+1209.54+396.568+1163.62L395.878+1159.13L320.621+1159.13L320.966+1164.31C327.18+1252+401.056+1305.16+512.906+1305.16Z" opacity="1" fill="#000000"/>
<path d="M763.186+1417.7L837.753+1417.7L837.753+1235.77L839.479+1235.77C860.882+1277.89+902.653+1304.12+954.09+1304.12C1045.23+1304.12+1104.95+1231.28+1104.95+1115.64L1104.95+1115.29C1104.95+999.3+1045.57+926.805+953.055+926.805C901.272+926.805+861.227+953.041+839.479+996.193L837.753+996.193L837.753+933.709L763.186+933.709L763.186+1417.7ZM933.723+1239.91C877.453+1239.91+837.408+1190.89+837.408+1115.64L837.408+1115.29C837.408+1039.69+877.107+990.67+933.723+990.67C992.064+990.67+1029+1037.96+1029+1115.29L1029+1115.64C1029+1192.28+992.409+1239.91+933.723+1239.91Z" opacity="1" fill="#000000"/>
<path d="M1318.64+1304.12C1422.55+1304.12+1490.9+1232.32+1490.9+1115.29L1490.9+1114.6C1490.9+998.265+1421.86+926.805+1318.29+926.805C1215.07+926.805+1146.37+998.61+1146.37+1114.6L1146.37+1115.29C1146.37+1231.97+1214.38+1304.12+1318.64+1304.12ZM1318.98+1241.64C1260.64+1241.64+1222.67+1195.73+1222.67+1115.29L1222.67+1114.6C1222.67+1035.2+1260.99+989.289+1318.29+989.289C1376.63+989.289+1414.61+1035.2+1414.61+1114.6L1414.61+1115.29C1414.61+1195.38+1377.32+1241.64+1318.98+1241.64Z" opacity="1" fill="#000000"/>
<path d="M1675.93+1304.12C1691.12+1304.12+1705.28+1302.4+1713.91+1301.02L1713.91+1243.37C1708.38+1244.06+1701.83+1244.75+1693.89+1244.75C1662.47+1244.75+1645.9+1233.7+1645.9+1196.76L1645.9+993.086L1713.91+993.086L1713.91+933.709L1645.9+933.709L1645.9+853.365L1569.61+869.849L1569.61+933.709L1517.48+933.709L1517.48+993.086L1569.61+993.086L1569.61+1201.25C1569.61+1273.75+1604.13+1304.12+1675.93+1304.12Z" opacity="1" fill="#000000"/>
<path d="M1778.12+1296.88L1852.68+1296.88L1852.68+805.25L1778.12+822.732L1778.12+1296.88Z" opacity="1" fill="#000000"/>
<path d="M2243.12+1424.95C2345.65+1424.95+2409.86+1369.72+2409.86+1286.86L2409.86+933.709L2334.95+933.709L2334.95+995.503L2333.22+995.503C2311.82+954.422+2271.78+926.805+2220.68+926.805C2128.51+926.805+2067.75+998.265+2067.75+1112.19L2067.75+1112.53C2067.75+1225.76+2127.82+1297.22+2218.96+1297.22C2271.08+1297.22+2312.51+1272.02+2333.22+1232.67L2334.95+1232.67L2334.95+1282.38C2334.95+1333.12+2302.15+1364.88+2242.78+1364.88C2196.17+1364.88+2164.76+1349+2154.75+1325.87L2153.37+1323.11L2079.49+1323.11L2079.84+1326.22C2090.88+1381.8+2149.91+1424.95+2243.12+1424.95ZM2240.02+1236.46C2180.98+1236.46+2144.05+1189.51+2144.05+1113.57L2144.05+1113.22C2144.05+1038.31+2180.98+990.67+2240.02+990.67C2296.63+990.67+2334.95+1038.65+2334.95+1113.22L2334.95+1113.57C2334.95+1188.48+2296.98+1236.46+2240.02+1236.46Z" opacity="1" fill="#000000"/>
<path d="M2486.15+1296.88L2560.72+1296.88L2560.72+1086.64C2560.72+1030.02+2594.9+990.67+2646.33+990.67C2698.81+990.67+2729.18+1026.57+2729.18+1086.64L2729.18+1296.88L2803.75+1296.88L2803.75+1072.49C2803.75+984.801+2752.66+926.805+2674.99+926.805C2620.79+926.805+2581.78+951.315+2562.45+993.432L2560.72+993.432L2560.72+798.73L2486.15+798.73L2486.15+1296.88Z" opacity="1" fill="#000000"/>
<path d="M3003.29+1304.12C3018.48+1304.12+3032.63+1302.4+3041.26+1301.02L3041.26+1243.37C3035.74+1244.06+3029.18+1244.75+3021.24+1244.75C2989.82+1244.75+2973.25+1233.7+2973.25+1196.76L2973.25+993.086L3041.26+993.086L3041.26+933.709L2973.25+933.709L2973.25+839.12L2896.96+839.12L2896.96+933.709L2844.83+933.709L2844.83+993.086L2896.96+993.086L2896.96+1201.25C2896.96+1273.75+2931.48+1304.12+3003.29+1304.12Z" opacity="1" fill="#000000"/>
<path d="M1969.85+890.859L1969.85+890.859C2000.9+890.859+2026.07+865.686+2026.07+834.634L2026.07+834.634C2026.07+803.581+2000.9+778.409+1969.85+778.409L1969.85+778.409C1938.79+778.409+1913.62+803.581+1913.62+834.634L1913.62+834.634C1913.62+865.686+1938.79+890.859+1969.85+890.859Z" opacity="1" fill="#000000"/>
<path d="M1932.43+1296.88L2007+1296.88L2007+933.709L1932.43+933.709L1932.43+1296.88Z" opacity="1" fill="#000000"/>
</g>
</svg>
